<?xml version="1.0" encoding="utf-8"?>
<svg width="139px" height="53px" viewBox="0 0 139 53" version="1.1" xmlns="http://www.w3.org/2000/svg">
  <title>Ybug-logo</title>
  <desc>Created with Sketch.</desc>
  <g id="V2B" stroke="none" stroke-width="1" fill="none" fill-rule="evenodd">
    <g id="Ybug-pricing_V1C" transform="translate(-158.000000, -26.000000)">
      <g id="Ybug-logo" transform="translate(153.000000, 21.000000)">
        <path d="M65.458,37.614 L65.458,29.199 L58.594,17.22 C58.033,16.296 58.462,15.57 59.518,15.57 L61.366,15.57 C62.125,15.57 62.62,15.9 62.95,16.593 L66.118,22.467 C66.844,23.919 67.537,25.602 67.537,25.602 L67.603,25.602 C67.603,25.602 68.296,23.919 69.022,22.467 L72.19,16.593 C72.52,15.9 73.015,15.57 73.774,15.57 L75.622,15.57 C76.711,15.57 77.107,16.296 76.579,17.22 L69.682,29.199 L69.682,37.614 C69.682,38.538 69.22,39 68.329,39 L66.844,39 C65.92,39 65.458,38.538 65.458,37.614 Z M82.087,37.614 L82.087,16.956 C82.087,16.065 82.582,15.57 83.473,15.57 L84.892,15.57 C85.816,15.57 86.278,16.065 86.278,16.956 L86.278,23.061 C86.278,23.886 86.179,24.48 86.179,24.48 L86.245,24.48 C86.245,24.48 87.73,21.774 91.393,21.774 C95.848,21.774 98.818,25.371 98.818,30.552 C98.818,35.931 95.485,39.396 91.129,39.396 C87.334,39.396 85.981,36.558 85.981,36.558 L85.915,36.558 C85.915,36.558 85.981,36.822 85.981,37.284 L85.981,37.812 C85.981,38.538 85.519,39 84.595,39 L83.473,39 C82.582,39 82.087,38.538 82.087,37.614 Z M86.146,30.585 C86.146,33.324 87.565,35.865 90.304,35.865 C92.647,35.865 94.561,33.984 94.561,30.651 C94.561,27.483 92.845,25.371 90.403,25.371 C88.225,25.371 86.146,26.988 86.146,30.585 Z M104.755,32.994 L104.755,23.556 C104.755,22.665 105.25,22.17 106.141,22.17 L107.56,22.17 C108.484,22.17 108.946,22.665 108.946,23.556 L108.946,32.136 C108.946,34.182 109.474,35.568 111.553,35.568 C114.589,35.568 116.272,32.895 116.272,29.892 L116.272,23.556 C116.272,22.665 116.734,22.17 117.658,22.17 L119.077,22.17 C119.968,22.17 120.463,22.665 120.463,23.556 L120.463,37.614 C120.463,38.538 119.968,39 119.077,39 L117.79,39 C116.899,39 116.437,38.538 116.437,37.614 L116.437,36.624 C116.437,36.228 116.503,35.865 116.503,35.865 L116.437,35.865 C115.645,37.581 113.467,39.396 110.596,39.396 C106.999,39.396 104.755,37.581 104.755,32.994 Z M128.974,42.498 C129.337,41.673 129.832,41.442 130.723,41.739 C131.515,42.036 132.571,42.366 134.122,42.366 C136.696,42.366 138.874,41.277 138.874,38.274 L138.874,37.02 C138.874,36.624 138.94,36.162 138.94,36.162 L138.874,36.162 C137.95,37.746 136.498,38.67 134.254,38.67 C129.337,38.67 126.631,34.776 126.631,30.123 C126.631,25.536 129.205,21.774 134.221,21.774 C138.148,21.774 139.204,24.348 139.204,24.348 L139.27,24.348 C139.27,24.348 139.237,24.183 139.237,23.919 L139.237,23.292 C139.237,22.665 139.699,22.17 140.59,22.17 L141.712,22.17 C142.603,22.17 143.065,22.665 143.065,23.556 L143.065,37.977 C143.065,43.752 138.511,45.93 134.353,45.93 C132.472,45.93 130.591,45.534 129.436,45.039 C128.578,44.676 128.347,44.115 128.71,43.257 L128.974,42.498 Z M135.079,35.139 C137.059,35.139 138.973,33.984 138.973,30.222 C138.973,26.361 137.059,25.338 134.881,25.338 C132.274,25.338 130.855,27.186 130.855,29.958 C130.855,32.994 132.373,35.139 135.079,35.139 Z" id="Ybug" fill-rule="nonzero" style="fill: rgb(48, 35, 174);"/>
        <g id="symbol" transform="translate(28.815179, 29.778239) rotate(-18.000000) translate(-28.815179, -29.778239) translate(6.315179, 5.778239)"/>
        <path d="M19.942295,48.9611132 L12.3151795,53.7782388 L12.3151795,43.5754442 C8.59165584,39.561028 6.31517948,34.1854832 6.31517948,28.2782388 C6.31517948,15.8518319 16.3887726,5.77823876 28.8151795,5.77823876 C41.2415864,5.77823876 51.3151795,15.8518319 51.3151795,28.2782388 C51.3151795,40.7046456 41.2415864,50.7782388 28.8151795,50.7782388 C25.6643259,50.7782388 22.6647423,50.1305748 19.942295,48.9611132 Z M25.3066581,29.2011465 C25.4532969,30.7408535 26.7464705,31.9167192 28.2931445,31.9167192 L29.3374237,31.9167192 C30.8840977,31.9167192 32.1772713,30.7408535 32.3239101,29.2011465 L33.7524815,14.2011465 C33.7614855,14.1066047 33.7659951,14.0116887 33.7659951,13.9167192 C33.7659951,12.259865 32.4228493,10.9167192 30.7659951,10.9167192 L26.8645731,10.9167192 C26.7696036,10.9167192 26.6746876,10.9212288 26.5801458,10.9302328 C24.9307549,11.0873176 23.7210019,12.5517556 23.8780867,14.2011465 L25.3066581,29.2011465 Z M28.8151795,45.5282388 C31.7146744,45.5282388 34.0651795,43.1777337 34.0651795,40.2782388 C34.0651795,37.3787438 31.7146744,35.0282388 28.8151795,35.0282388 C25.9156845,35.0282388 23.5651795,37.3787438 23.5651795,40.2782388 C23.5651795,43.1777337 25.9156845,45.5282388 28.8151795,45.5282388 Z" id="Symbol" transform="translate(28.815179, 29.778239) rotate(-18.000000) translate(-28.815179, -29.778239) " style="fill: rgb(48, 35, 174);"/>
      </g>
    </g>
  </g>
</svg>